# Alias OBJ Model File
# Exported from SketchUp, (c) 2000-2012 Trimble Navigation Limited
# File units = meters

mtllib ExSecondHydralicsCylinder.mtl

g Mesh1 Group2 Group1 liebherr_excavator1 Model

usemtl _1
v 0.0303195 1.37624 -0.0714465
vt -23.7963 5.41051
vn 0.382683 0.000647494 -0.923879
v 0.0562734 1.37623 -0.0541046
vt -24.3411 6.51207
vn 0.707107 0.00049557 -0.707107
v 0.0562734 1.22623 -0.0542098
vt -29.6346 3.89413
v 0.0303195 1.22624 -0.0715516
vt -29.0898 2.79257
f 1/1/1 2/2/2 3/3/2 4/4/1 

v 0.0797049 1.37619 0.00246389
vt -7.08661 22.931
vn 6.30685e-020 1 0.000700842
v 0.0736152 1.37621 -0.0281508
vt -6.84686 21.7257
vt -6.16412 20.7039
vt -5.14231 20.0211
v -0.00029515 1.37625 -0.0775361
vt -3.93701 19.7814
v -0.0309098 1.37624 -0.0714465
vt -2.73171 20.0211
v -0.0568637 1.37623 -0.0541046
vt -1.7099 20.7039
v -0.0742055 1.37621 -0.0281508
vt -1.02715 21.7257
v -0.0802951 1.37619 0.00246389
vt -0.787402 22.931
v -0.0742055 1.37617 0.0330786
vt -1.02715 24.1363
v -0.0568637 1.37615 0.0590324
vt -1.7099 25.1581
v -0.0309098 1.37614 0.0763742
vt -2.73171 25.8408
v -0.00029515 1.37613 0.0824639
vt -3.93701 26.0806
v 0.0303195 1.37614 0.0763742
vt -5.14231 25.8408
v 0.0562734 1.37615 0.0590324
vt -6.16412 25.1581
v 0.0736152 1.37617 0.0330786
vt -6.84686 24.1363
f 5/5/3 6/6/3 2/7/3 1/8/3 7/9/3 8/10/3 9/11/3 10/12/3 11/13/3 12/14/3 13/15/3 14/16/3 15/17/3 16/18/3 17/19/3 18/20/3 

vt -24.3383 16.6975
vn 0.92388 0.000268201 -0.382683
vt -24.6698 17.8809
vn 1 -1.04186e-015 -2.45328e-015
v 0.0797049 1.22619 0.00235877
vt -30.3564 16.2878
v 0.0736152 1.22621 -0.0282559
vt -30.0249 15.1045
f 6/21/4 5/22/5 19/23/5 20/24/4 

vt -23.9239 15.2183
vt -24.2555 16.4017
vn 0.92388 -0.000268201 0.382683
v 0.0736152 1.22617 0.0329734
vt -29.942 14.8086
vt -29.6105 13.6253
f 5/25/5 18/26/6 21/27/6 19/28/5 

vt -23.079 9.50322
vt -23.4646 10.6701
vn 0.707107 -0.00049557 0.707107
v 0.0562734 1.22615 0.0589273
vt -29.0719 8.81714
vt -28.6863 7.65029
f 18/29/6 17/30/7 22/31/7 21/32/6 

vt -20.894 -0.45804
vt -21.4387 0.643524
vn 0.382683 -0.000647494 0.923879
v 0.0303195 1.22614 0.0762691
vt -26.7323 -1.97442
vt -26.1875 -3.07598
f 17/33/7 16/34/8 23/35/8 22/36/7 

vt -10.9586 -15.4376
vt -11.9607 -14.7262
vn -1.28978e-016 -0.000700842 1
v -0.00029515 1.22613 0.0823587
vt -15.3796 -19.5413
vt -14.3776 -20.2528
f 16/37/8 15/38/9 24/39/9 23/40/8 

vt 18.2575 -10.2552
vt 17.2555 -10.9666
vn -0.382683 -0.000647494 0.923879
v -0.0309098 1.22614 0.0762691
vt 20.6744 -15.7818
vt 21.6765 -15.0703
f 15/41/9 14/42/10 25/43/10 24/44/9 

vt 24.3411 6.51207
vt 23.7963 5.41051
vn -0.707107 -0.00049557 0.707107
v -0.0568637 1.22615 0.0589273
vt 29.0898 2.79257
vt 29.6346 3.89413
f 14/45/10 13/46/11 26/47/11 25/48/10 

vt 24.8372 14.8237
vt 24.4516 13.6569
vn -0.92388 -0.000268201 0.382683
v -0.0742055 1.22617 0.0329734
vt 30.0589 11.8039
vt 30.4445 12.9708
f 13/49/11 12/50/12 27/51/12 26/52/11 

vt 24.6698 17.8809
vt 24.3383 16.6975
vn -1 -8.75147e-016 -2.20039e-015
v -0.0802951 1.22619 0.00235877
vt 30.0249 15.1045
vt 30.3564 16.2878
f 12/53/12 11/54/13 28/55/13 27/56/12 

vt 24.2555 16.4017
vt 23.9239 15.2183
vn -0.92388 0.000268201 -0.382683
v -0.0742055 1.22621 -0.0282559
vt 29.6105 13.6253
vt 29.942 14.8086
f 11/57/13 10/58/14 29/59/14 28/60/13 

vt 23.4646 10.6701
vt 23.079 9.50322
vn -0.707107 0.00049557 -0.707107
v -0.0568637 1.22623 -0.0542098
vt 28.6863 7.65029
vt 29.0719 8.81714
f 10/61/14 9/62/15 30/63/15 29/64/14 

vt 21.4387 0.643524
vt 20.894 -0.45804
vn -0.382683 0.000647494 -0.923879
v -0.0309098 1.22624 -0.0715516
vt 26.1875 -3.07598
vt 26.7323 -1.97442
f 9/65/15 8/66/16 31/67/16 30/68/15 

vt 11.9607 -14.7262
vt 10.9586 -15.4376
vn 1.5781e-017 0.000700842 -1
v -0.00029515 1.22625 -0.0776412
vt 14.3776 -20.2528
vt 15.3796 -19.5413
f 8/69/16 7/70/17 32/71/17 31/72/16 

vt -17.2555 -10.9666
vt -18.2575 -10.2552
vt -21.6765 -15.0703
vt -20.6744 -15.7818
f 7/73/17 1/74/1 4/75/1 32/76/17 

v -0.00029515 1.22624 -0.0626412
vt 3.93701 20.3719
vn -6.29393e-020 -1 -0.000700842
vt 3.93701 19.7814
vt 5.14231 20.0211
f 33/77/18 32/78/18 4/79/18

v -0.0251696 1.22623 -0.0576934
vt 2.9577 20.5667
f 34/80/18 32/78/18 33/77/18

vt 2.73171 20.0211
f 34/80/18 31/81/18 32/78/18

v -0.0462571 1.22622 -0.0436032
vt 2.12748 21.1214
f 35/82/18 31/81/18 34/80/18

vt 1.7099 20.7039
f 35/82/18 30/83/18 31/81/18

v -0.0603473 1.22621 -0.0225156
vt 1.57275 21.9517
f 36/84/18 30/83/18 35/82/18

v -0.0652951 1.22619 0.00235877
vt 1.37795 22.931
f 37/85/18 30/83/18 36/84/18

vt 1.02715 24.1363
f 27/86/18 30/83/18 37/85/18

vt 1.02715 21.7257
f 27/86/18 29/87/18 30/83/18

vt 0.787402 22.931
f 29/87/18 27/86/18 28/88/18

vt 1.7099 25.1581
f 37/85/18 26/89/18 27/86/18

v -0.0603473 1.22617 0.0272332
vt 1.57275 23.9103
f 26/89/18 37/85/18 38/90/18

vt 30.056 15.2154
vn -1 9.04031e-017 -6.52578e-014
v -0.0652951 0.0664044 0.00154594
vt 74.0241 2.89807
v -0.0603473 0.0614392 0.0264169
vt 74.4811 3.807
vt 30.3253 16.1769
f 37/91/19 39/92/19 40/93/12 38/94/12 

vt 29.6416 13.7362
v -0.0603473 0.061474 -0.0233319
vt 73.7973 1.36633
vt 73.8791 2.38035
vt 29.911 14.6977
f 36/95/14 41/96/14 39/97/19 37/98/19 

vt 28.7225 7.75968
v -0.0462571 0.0481838 -0.0444288
vt 72.7598 -6.79251
v -0.0592292 0.0611423 -0.0250056
vt 72.5633 -5.75943
vn -0.83147 0.000389367 -0.55557
vt 72.5758 -5.68008
vt 29.0357 8.70775
f 35/99/15 42/100/15 43/101/20 41/102/14 36/103/14 

vt 26.2386 -2.97271
v -0.0251696 0.0296677 -0.058532
vt 68.4656 -23.8563
v -0.0416296 0.04612 -0.0475222
vt 68.2302 -22.8704
vn -0.55557 0.000582729 -0.831469
vt 68.2544 -22.6379
vt 26.6812 -2.07769
f 34/104/16 44/105/16 45/106/21 42/107/15 35/108/15 

vt 14.4715 -20.1861
vn -3.47075e-014 0.000700842 -1
v -0.00029515 0.0190606 -0.0634873
vt 41.9867 -58.9378
v -0.00485958 0.0236244 -0.0625761
vt 42.0321 -58.6852
vn -0.19509 0.000687376 -0.980785
vt 42.559 -58.0191
vt 15.2857 -19.608
f 33/109/22 46/110/22 47/111/23 44/112/16 34/113/16 

v 0.0245793 1.22623 -0.0576934
vt -21.5825 -15.137
v 0.0245793 0.0296677 -0.058532
vt -48.8559 -53.5481
v 0.00426928 0.0236244 -0.0625761
vt -48.329 -54.2141
vn 0.19509 0.000687376 -0.980785
vt -48.2836 -54.4667
vt -20.7684 -15.7151
f 48/114/1 49/115/1 50/116/24 46/117/22 33/118/22 

v 0.0456668 1.22622 -0.0436032
vt -29.5835 3.79086
v 0.0456668 0.0481838 -0.0444288
vt -71.1567 -16.7694
v 0.0410393 0.04612 -0.0475222
vt -71.1325 -17.0018
vn 0.55557 0.000582729 -0.831469
vt -71.3679 -17.9877
vt -29.1409 2.89584
f 51/119/2 52/120/2 53/121/25 49/122/1 48/123/1 

v 0.059757 1.22621 -0.0225156
vt -30.4083 12.8614
v 0.059757 0.061474 -0.0233319
vt -73.9483 -1.52642
v 0.0586389 0.0611423 -0.0250056
vt -73.9359 -1.60577
vn 0.83147 0.000389367 -0.55557
vt -74.1324 -2.63885
vt -30.095 11.9133
f 54/124/4 55/125/4 56/126/26 52/127/2 51/128/2 

v 0.0647049 1.22619 0.00235877
vt -30.3253 16.1769
vn 1 -1.47602e-015 -5.1571e-014
v 0.0647049 0.0664044 0.00154594
vt -74.2935 3.85955
vt -74.2117 2.84552
vt -30.056 15.2154
f 57/129/27 58/130/27 55/131/4 54/132/4 

v 0.059757 1.22617 0.0272332
vt -29.911 14.6977
v 0.059757 0.0614392 0.0264169
vt -74.0667 2.32781
vt -73.6098 1.41887
vt -29.6416 13.7362
f 59/133/6 60/134/6 58/135/27 57/136/27 

v 0.0456668 1.22616 0.0483207
vt -29.0357 8.70775
v 0.0456668 0.0481194 0.0474951
vt -73.0731 -5.84444
v 0.0586389 0.0611051 0.02809
vt -72.2998 -6.55703
vn 0.83147 -0.000389367 0.55557
vt -72.2625 -6.62815
vt -28.7225 7.75968
f 61/137/7 62/138/7 63/139/28 60/140/6 59/141/6 

v 0.0245793 1.22615 0.0624109
vt -26.6812 -2.07769
v 0.0245793 0.0295835 0.0615723
vt -68.9082 -22.9613
v 0.0410393 0.0460512 0.0505856
vt -67.9818 -23.3726
vn 0.55557 -0.000582729 0.831469
vt -67.8118 -23.5329
vt -26.2386 -2.97271
f 64/142/8 65/143/8 66/144/29 62/145/7 61/146/7 

v -0.00029515 1.22614 0.0673588
vt -15.2857 -19.608
vn -1.89905e-014 -0.000700842 1
v -0.00029515 0.0189695 0.0665127
vt -42.8009 -58.3597
v 0.00426928 0.0235346 0.065608
vt -42.5474 -58.3192
vn 0.19509 -0.000687376 0.980785
vt -41.7449 -58.5972
vt -14.4715 -20.1861
f 67/147/30 68/148/30 69/149/31 65/150/8 64/151/8 

v -0.0251696 1.22615 0.0624109
vt 20.7684 -15.7151
v -0.0251696 0.0295835 0.0615723
vt 48.0417 -54.1261
v -0.00485958 0.0235346 0.065608
vt 48.8443 -53.8482
vn -0.19509 -0.000687376 0.980785
vt 49.0977 -53.8887
vt 21.5825 -15.137
f 70/152/10 71/153/10 72/154/32 68/155/30 67/156/30 

v -0.0462571 1.22616 0.0483207
vt 29.1409 2.89584
v -0.0462571 0.0481194 0.0474951
vt 70.7141 -17.6644
v -0.0416296 0.0460512 0.0505856
vt 70.8842 -17.504
vn -0.55557 -0.000582729 0.831469
vt 71.8105 -17.0927
vt 29.5835 3.79086
f 73/157/11 74/158/11 75/159/33 71/160/10 70/161/10 

vt 30.095 11.9133
vt 73.635 -2.47449
v -0.0592292 0.0611051 0.02809
vt 73.6723 -2.40337
vn -0.83147 -0.000389367 0.55557
vt 74.4457 -1.69078
vt 30.4083 12.8614
f 38/162/12 40/163/12 76/164/34 74/165/11 73/166/11 

v -0.130295 0.0611051 0.02809
vt 1.1811 37.3095
vn 3.23356e-015 0.923611 0.383331
vt -1.61677 37.3095
vt -1.57275 37.2424
vn 5.25925e-015 0.980648 0.195778
vt -1.37795 36.2439
vn 1.8778e-015 1 0.000700842
v -0.130295 0.0664044 0.00154594
vt 1.1811 36.2439
f 77/167/35 76/168/35 40/169/36 39/170/37 78/171/37 

v -0.130295 0.0460512 0.0505856
vt 1.1811 60.2833
vn 1.23245e-015 0.706611 0.707602
vt -2.30967 60.2833
vt -2.12748 60.1369
vn 1.08362e-015 0.83108 0.556153
vt -1.61677 59.2176
vt 1.1811 59.2176
f 79/172/38 75/173/38 74/174/39 76/175/35 77/176/35 

v -0.130295 0.0235346 0.065608
vt 1.1811 74.1606
vn 6.13982e-016 0.382036 0.924148
vt -3.75731 74.1606
vt -2.9577 73.8743
vn 1.33392e-015 0.554987 0.831859
vt -2.30967 73.0949
vt 1.1811 73.0949
f 80/177/40 72/178/40 71/179/41 75/180/38 79/181/38 

v 0.129705 0.0235346 0.065608
vt 9.05512 -75.7631
vn 1.74919e-015 0.382036 0.924148
vt 4.11671 -75.7631
vt 3.93701 -75.9463
vn -1.29551e-016 0.194403 0.980922
vt 3.75731 -75.7631
vt -1.1811 -75.7631
v -0.130295 -0.00301695 0.0708701
vt -1.1811 -76.8287
vn -6.60445e-017 -0.000700842 1
v 0.129705 -0.00301695 0.0708701
vt 9.05512 -76.8287
f 81/182/42 69/183/42 68/184/43 72/185/40 80/186/40 82/187/44 83/188/44 

v 0.129705 0.0460512 0.0505856
vt -9.05512 73.0949
vn 1.26737e-015 0.706611 0.707602
vt -5.56435 73.0949
vt -4.91632 73.8743
vn 3.5607e-015 0.554987 0.831859
vt -4.11671 74.1606
vt -9.05512 74.1606
f 84/189/45 66/190/45 65/191/46 69/192/42 81/193/42 

v 0.129705 0.0611051 0.02809
vt -9.05512 59.2176
vn -3.18609e-015 0.923611 0.383331
vt -6.25725 59.2176
vt -5.74653 60.1369
vn -1.07466e-015 0.83108 0.556153
vt -5.56435 60.2833
vt -9.05512 60.2833
f 85/194/47 63/195/47 62/196/48 66/197/45 84/198/45 

v 0.129705 0.0664044 0.00154594
vt -9.05512 36.2439
vn 9.9422e-015 1 0.000700842
vt -6.49606 36.2439
vt -6.30127 37.2424
vn -5.17508e-015 0.980648 0.195778
vt -6.25725 37.3095
vt -9.05512 37.3095
f 86/199/49 58/200/49 60/201/50 63/202/47 85/203/47 

v 0.129705 0.0611423 -0.0250056
vt -9.05512 7.67119
vn 2.58421e-014 0.924148 -0.382036
vt -6.25725 7.67119
vt -6.30127 7.73836
vn 2.46774e-014 0.980922 -0.194403
vt -6.49606 8.73685
vt -9.05512 8.73685
f 87/204/51 56/205/51 55/206/52 58/207/49 86/208/49 

v 0.129705 0.04612 -0.0475222
vt -9.05512 -22.1505
vn 1.92372e-015 0.707602 -0.706611
vt -5.56435 -22.1505
vt -5.74653 -22.0041
vn 2.60138e-014 0.831859 -0.554987
vt -6.25725 -21.0848
vt -9.05512 -21.0848
f 88/209/53 53/210/53 52/211/54 56/212/51 87/213/51 

v 0.129705 0.0236244 -0.0625761
vt -9.05512 -48.6811
vn -1.12072e-014 0.383331 -0.923611
vt -4.11671 -48.6811
vt -4.91632 -48.3948
vn -2.22403e-014 0.556153 -0.83108
vt -5.56435 -47.6154
vt -9.05512 -47.6154
f 89/214/55 50/215/55 49/216/56 53/217/53 88/218/53 

v -0.130295 0.0236244 -0.0625761
vt 1.1811 -66.8159
vn -1.4007e-015 0.383331 -0.923611
vt -3.75731 -66.8159
vt -3.93701 -66.9991
vn 2.56555e-016 0.195778 -0.980648
vt -4.11671 -66.8159
vt -9.05512 -66.8159
v 0.129705 -0.00291971 -0.0678754
vt -9.05512 -67.8815
vn 1.30791e-016 0.000700842 -1
v -0.130295 -0.00291971 -0.0678754
vt 1.1811 -67.8815
f 90/219/57 47/220/57 46/221/58 50/222/55 89/223/55 91/224/59 92/225/59 

v -0.130295 0.04612 -0.0475222
vt 1.1811 -47.6154
vn -4.75627e-015 0.707602 -0.706611
vt -2.30967 -47.6154
vt -2.9577 -48.3948
vn -3.00413e-015 0.556153 -0.83108
vt -3.75731 -48.6811
vt 1.1811 -48.6811
f 93/226/60 45/227/60 44/228/61 47/229/57 90/230/57 

v -0.130295 0.0611423 -0.0250056
vt 1.1811 -21.0848
vn -4.02811e-015 0.924148 -0.382036
vt -1.61677 -21.0848
vt -2.12748 -22.0041
vn -6.32562e-015 0.831859 -0.554987
vt -2.30967 -22.1505
vt 1.1811 -22.1505
f 94/231/62 43/232/62 42/233/63 45/234/60 93/235/60 

vt 1.1811 8.73685
vt -1.37795 8.73685
vt -1.57275 7.73836
vn -1.5758e-015 0.980922 -0.194403
vt -1.61677 7.67119
vt 1.1811 7.67119
f 78/236/37 39/237/37 41/238/64 43/239/62 94/240/62 

vt 77.4115 5.34366
vn -1 0 -0
vt 76.3486 5.4201
vt 75.3373 5.08397
vt 74.5316 4.38642
vt 74.0543 3.43366
vt 73.9778 2.37074
vt 74.3139 1.35948
vt 75.0115 0.553827
vt 75.9643 0.076442
v -0.130295 -0.0294712 -0.0626133
vt 77.0272 -1.23742e-015
v -0.130295 -0.0519879 -0.047591
vt 78.0384 0.336139
v -0.130295 -0.0670418 -0.0250954
vt 78.8441 1.03368
v -0.130295 -0.0723411 0.0014487
vt 79.3215 1.98644
v -0.130295 -0.067079 0.0280002
vt 79.3979 3.04936
v -0.130295 -0.0520567 0.0505169
vt 79.0618 4.06063
v -0.130295 -0.0295611 0.0655708
vt 78.3642 4.86628
f 82/241/65 80/242/65 79/243/65 77/244/65 78/245/65 94/246/65 93/247/65 90/248/65 92/249/65 95/250/65 96/251/65 97/252/65 98/253/65 99/254/65 100/255/65 101/256/65 

vt -9.05512 -75.7631
v 0.129705 -0.0294712 -0.0626133
vt -9.05512 -76.8287
vn 8.7972e-032 -0.382036 -0.924148
vt 1.1811 -76.8287
vt 1.1811 -75.7631
f 91/257/59 102/258/66 95/259/66 92/260/59 

vt -76.3486 5.4201
vn 1 0 -0
vt -77.4115 5.34366
v 0.129705 -0.0295611 0.0655708
vt -78.3642 4.86628
v 0.129705 -0.0520567 0.0505169
vt -79.0618 4.06063
v 0.129705 -0.067079 0.0280002
vt -79.3979 3.04936
v 0.129705 -0.0723411 0.0014487
vt -79.3215 1.98644
v 0.129705 -0.0670418 -0.0250954
vt -78.8441 1.03368
v 0.129705 -0.0519879 -0.047591
vt -78.0384 0.336139
vt -77.0272 -1.17127e-015
vt -75.9643 0.076442
vt -75.0115 0.553827
vt -74.3139 1.35948
vt -73.9778 2.37074
vt -74.0543 3.43366
vt -74.5316 4.38642
vt -75.3373 5.08397
f 81/261/67 83/262/67 103/263/67 104/264/67 105/265/67 106/266/67 107/267/67 108/268/67 102/269/67 91/270/67 89/271/67 88/272/67 87/273/67 86/274/67 85/275/67 84/276/67 

vt 9.05512 -67.8815
vn -6.28372e-032 -0.383331 0.923611
vt 9.05512 -66.8159
vt -1.1811 -66.8159
vt -1.1811 -67.8815
f 103/277/68 83/278/44 82/279/44 101/280/68 

vt 9.05512 -48.6811
vn 0 -0.707602 0.706611
vt 9.05512 -47.6154
vt -1.1811 -47.6154
vt -1.1811 -48.6811
f 104/281/69 103/282/68 101/283/68 100/284/69 

vt 9.05512 -22.1505
vn -3.77023e-032 -0.924148 0.382036
vt 9.05512 -21.0848
vt -1.1811 -21.0848
vt -1.1811 -22.1505
f 105/285/70 104/286/69 100/287/69 99/288/70 

vt 9.05512 7.67119
vn -4.08442e-032 -1 -0.000700842
vt 9.05512 8.73685
vt -1.1811 8.73685
vt -1.1811 7.67119
f 106/289/71 105/290/70 99/291/70 98/292/71 

vt 9.05512 36.2439
vn -1.25674e-032 -0.923611 -0.383331
vt 9.05512 37.3095
vt -1.1811 37.3095
vt -1.1811 36.2439
f 107/293/72 106/294/71 98/295/71 97/296/72 

vt 9.05512 59.2176
vn 0 -0.706611 -0.707602
vt 9.05512 60.2833
vt -1.1811 60.2833
vt -1.1811 59.2176
f 108/297/73 107/298/72 97/299/72 96/300/73 

vt 9.05512 73.0949
vt 9.05512 74.1606
vt -1.1811 74.1606
vt -1.1811 73.0949
f 102/301/66 108/302/73 96/303/73 95/304/66 

vt 2.12748 24.7405
f 26/89/18 38/90/18 73/305/18

vt 2.73171 25.8408
f 26/89/18 73/305/18 25/306/18

vt 2.9577 25.2952
f 25/306/18 73/305/18 70/307/18

vt 3.93701 26.0806
f 25/306/18 70/307/18 24/308/18

vt 3.93701 25.49
f 24/308/18 70/307/18 67/309/18

vt 5.14231 25.8408
f 24/308/18 67/309/18 23/310/18

vt 4.91632 25.2952
f 23/310/18 67/309/18 64/311/18

vt 5.74653 24.7405
f 23/310/18 64/311/18 61/312/18

vt 6.16412 25.1581
f 23/310/18 61/312/18 22/313/18

vt 6.30127 23.9103
f 22/313/18 61/312/18 59/314/18

vt 6.84686 24.1363
f 22/313/18 59/314/18 21/315/18

vt 6.49606 22.931
f 21/315/18 59/314/18 57/316/18

vt 6.84686 21.7257
f 21/315/18 57/316/18 20/317/18

vt 6.30127 21.9517
f 54/318/18 20/317/18 57/316/18

vt 6.16412 20.7039
f 54/318/18 3/319/18 20/317/18

vt 5.74653 21.1214
f 51/320/18 3/319/18 54/318/18

f 51/320/18 4/79/18 3/319/18

vt 4.91632 20.5667
f 48/321/18 4/79/18 51/320/18

f 33/77/18 4/79/18 48/321/18

vt -24.4516 13.6569
vt -24.8372 14.8237
vt -30.4445 12.9708
vt -30.0589 11.8039
f 2/322/2 6/323/4 20/324/4 3/325/2 

vt 7.08661 22.931
f 21/315/18 20/317/18 19/326/18

