# Alias OBJ Model File
# Exported from SketchUp, (c) 2000-2012 Trimble Navigation Limited
# File units = meters

mtllib ExSecondHydralicsPiston.mtl

g Mesh1 Group2 Group1 liebherr_excavator1 Model

usemtl Color_001
v -0.100295 0.0460317 -0.0390563
vt 1.18067e-013 33.7635
vn 2.34743e-014 0.707602 -0.706611
v -0.025068 0.0460317 -0.0390563
vt 2.9617 33.7635
v -0.0194293 0.0403956 -0.0428279
vt 3.18369 34.0305
vn 1.10801e-015 0.556153 -0.83108
v -0.00029515 0.0347022 -0.0466379
vt 3.93701 34.3002
v 0.018839 0.0403956 -0.0428279
vt 4.69032 34.0305
v 0.0244777 0.0460317 -0.0390563
vt 4.91232 33.7635
vn -4.56551e-014 0.707602 -0.706611
v 0.0997049 0.0460317 -0.0390563
vt 7.87402 33.7635
v 0.0997049 0.0265754 -0.0520763
vt 7.87402 34.6852
vn -8.89264e-016 0.383331 -0.923611
v -0.100295 0.0265754 -0.0520763
vt 1.19006e-013 34.6852
f 1/1/1 2/2/1 3/3/2 4/4/2 5/5/2 6/6/3 7/7/3 8/8/4 9/9/4 

v -0.100295 0.0590244 -0.0195818
vt 8.67285e-013 32.9611
vn 5.85472e-014 0.924148 -0.382036
v -0.0439322 0.0590244 -0.0195818
vt 2.21902 32.9611
v -0.0356505 0.0507514 -0.031982
vt 2.54507 33.548
vn 4.49386e-014 0.831859 -0.554987
vt 2.9617 33.8828
vt 8.87728e-013 33.8828
f 10/10/5 11/11/5 12/12/6 2/13/1 1/14/1 

v -0.100295 0.0635755 0.00338231
vt 1.24636e-012 27.0705
vn 8.60287e-015 1 0.000700842
v -0.0502951 0.0635755 0.00338231
vt 1.9685 27.0705
v -0.0464891 0.0597829 -0.0157545
vt 2.11835 27.8386
vn 6.9906e-014 0.980922 -0.194403
vt 2.21902 27.9922
vt 1.24173e-012 27.9922
f 13/15/7 14/16/7 15/17/8 11/18/5 10/19/5 

v -0.100295 0.0589922 0.0263401
vt -9.21961e-013 16.9885
vn -4.64003e-014 0.923611 0.383331
v -0.0439322 0.0589922 0.0263401
vt 2.21902 16.9885
v -0.0464891 0.0597561 0.0225138
vt 2.11835 17.1421
vn -5.30308e-014 0.980648 0.195778
vt 1.9685 17.9102
vt -8.97463e-013 17.9102
f 16/20/9 17/21/9 18/22/10 14/23/7 13/24/7 

v -0.100295 0.0459722 0.0457963
vt -9.41581e-013 4.25003
vn -1.38811e-014 0.706611 0.707602
v -0.025068 0.0459722 0.0457963
vt 2.9617 4.25003
v -0.0356505 0.0507018 0.0387286
vt 2.54507 4.58484
vn -3.79866e-014 0.83108 0.556153
vt 2.21902 5.17171
vt -9.01093e-013 5.17171
f 19/25/11 20/26/11 21/27/12 17/28/9 16/29/9 

v 0.0997049 0.0459722 0.0457963
vt 7.87402 -8.28397
vn -1.63211e-014 0.706611 0.707602
v 0.0244777 0.0459722 0.0457963
vt 4.91232 -8.28397
v 0.018839 0.0403309 0.04956
vt 4.69032 -8.55097
vn 1.0758e-014 0.554987 0.831859
v -0.00029515 0.0346321 0.053362
vt 3.93701 -8.82068
v -0.0194293 0.0403309 0.04956
vt 3.18369 -8.55097
vt 2.9617 -8.28397
vt 6.84123e-013 -8.28397
v -0.100295 0.0264977 0.058789
vt 7.13761e-013 -9.20566
vn 1.29954e-014 0.382036 0.924148
v 0.0997049 0.0264977 0.058789
vt 7.87402 -9.20566
f 22/30/13 23/31/13 24/32/14 25/33/14 26/34/14 20/35/11 19/36/11 27/37/15 28/38/15 

v 0.0997049 0.0589922 0.0263401
vt 7.87402 5.17171
vn 2.09075e-014 0.923611 0.383331
v 0.0433419 0.0589922 0.0263401
vt 5.655 5.17171
v 0.0350602 0.0507018 0.0387286
vt 5.32895 4.58484
vn -4.27729e-014 0.83108 0.556153
vt 4.91232 4.25003
vt 7.87402 4.25003
f 29/39/16 30/40/16 31/41/17 23/42/13 22/43/13 

v 0.0997049 0.0635755 0.00338231
vt 7.87402 17.9102
vn 4.2857e-014 1 0.000700842
v 0.0497049 0.0635755 0.00338231
vt 5.90551 17.9102
v 0.0458988 0.0597561 0.0225138
vt 5.75567 17.1421
vn 8.37844e-014 0.980648 0.195778
vt 5.655 16.9885
vt 7.87402 16.9885
f 32/44/18 33/45/18 34/46/19 30/47/16 29/48/16 

v 0.0997049 0.0590244 -0.0195818
vt 7.87402 27.9922
vn -4.60759e-014 0.924148 -0.382036
v 0.0433419 0.0590244 -0.0195818
vt 5.655 27.9922
v 0.0458988 0.0597829 -0.0157545
vt 5.75567 27.8386
vn 2.82625e-016 0.980922 -0.194403
vt 5.90551 27.0705
vt 7.87402 27.0705
f 35/49/20 36/50/20 37/51/21 33/52/18 32/53/18 

vt 7.87402 33.8828
vt 4.91232 33.8828
v 0.0350602 0.0507514 -0.031982
vt 5.32895 33.548
vn -9.06637e-014 0.831859 -0.554987
vt 5.655 32.9611
vt 7.87402 32.9611
f 7/54/3 6/55/3 38/56/22 36/57/20 35/58/20 

v 0.0350602 1.66191 -0.0308529
vt -39.3867 -9.34667
vn 0.707107 0.00049557 -0.707107
vt 17.4714 18.7728
vt 17.416 19.3044
vn 0.55557 0.000582729 -0.831469
vt 17.4967 19.6421
vn 0.382683 0.000647494 -0.923879
v 0.018839 1.66192 -0.0416915
vt -39.7272 -8.65819
f 39/59/23 38/60/23 6/61/24 5/62/25 40/63/25 

v 0.0458988 1.6619 -0.0146317
vt -42.632 3.28459
vn 0.92388 0.000268201 -0.382683
vt 17.2582 23.0754
vt 17.2298 23.2568
vn 0.83147 0.000389367 -0.55557
vt 17.3553 23.9164
vt -42.873 4.01388
f 41/64/26 37/65/26 36/66/27 38/67/23 39/68/23 

v 0.0497049 1.66189 0.00450247
vt -43.7423 9.90567
vn 1 -4.58461e-015 -1.58611e-013
vt 16.8506 26.8803
vt 16.7877 27.6603
vt -43.9495 10.6453
f 42/69/28 33/70/28 37/71/26 41/72/26 

v 0.0458988 1.66187 0.0236366
vt -44.1567 11.3849
vn 0.92388 -0.000268201 0.382683
vt 16.5805 28.3999
vt 16.229 29.0991
vt -44.3639 12.1245
f 43/73/29 34/74/29 33/75/28 42/76/28 

v 0.0350602 1.66186 0.0398578
vt -44.0046 7.43825
vn 0.707107 -0.00049557 0.707107
vt 16.2237 27.3407
vt 15.73 27.7957
vn 0.83147 -0.000389367 0.55557
vt 15.6447 27.9583
vt -44.2456 8.16754
f 44/77/30 31/78/30 30/79/31 34/80/29 43/81/29 

v 0.018839 1.66185 0.0506964
vt -42.2891 -3.47813
vn 0.382683 -0.000647494 0.923879
vt 14.9348 24.8222
vt 14.6175 24.9631
vn 0.55557 -0.000582729 0.831469
vt 14.2286 25.3298
vt -42.6295 -2.78965
f 45/82/32 24/83/32 23/84/33 31/85/30 44/86/30 

v -0.00029515 1.66185 0.0545025
vt -29.3214 -27.5619
vn 1.46291e-014 -0.000700842 1
vt 7.76788 24.6736
vt 7.01179 24.9354
vt -29.9477 -27.1173
f 46/87/34 25/88/34 24/89/32 45/90/32 

v -0.0194293 1.66185 0.0506964
vt 23.6508 -31.5883
vn -0.382683 -0.000647494 0.923879
vt -13.3086 20.4644
vt -14.0647 20.2026
vt 23.0246 -32.033
f 47/91/35 26/92/35 25/93/34 46/94/34 

v -0.0356505 1.66186 0.0398578
vt 39.7272 -8.65819
vn -0.707107 -0.00049557 0.707107
vt -17.1309 19.4613
vt -17.5198 19.0946
vn -0.55557 -0.000582729 0.831469
vt -17.8372 18.9537
vt 39.3867 -9.34667
f 48/95/36 21/96/36 20/97/37 26/98/35 47/99/35 

v -0.0464891 1.66187 0.0236366
vt 42.873 4.01388
vn -0.92388 -0.000268201 0.382683
vt -17.0173 23.8047
vt -17.1026 23.642
vn -0.83147 -0.000389367 0.55557
vt -17.5963 23.1871
vt 42.632 3.28459
f 49/100/38 18/101/38 17/102/39 21/103/36 48/104/36 

v -0.0502951 1.66189 0.00450247
vt 43.9495 10.6453
vn -1 1.37094e-015 -1.52492e-013
vt -16.6434 27.6199
vt -16.9949 26.9207
vt 43.7423 9.90567
f 50/105/40 14/106/40 18/107/38 49/108/38 

v -0.0464891 1.6619 -0.0146317
vt 44.3639 12.1245
vn -0.92388 0.000268201 -0.382683
vt -16.3733 29.1395
vt -16.4362 28.3595
vt 44.1567 11.3849
f 51/109/41 15/110/41 14/111/40 50/112/40 

v -0.0356505 1.66191 -0.0308529
vt 44.2456 8.16754
vn -0.707107 0.00049557 -0.707107
vt -15.9827 28.07
vt -15.8573 27.4105
vn -0.83147 0.000389367 -0.55557
vt -15.8857 27.229
vt 44.0046 7.43825
f 52/113/42 12/114/42 11/115/43 15/116/41 51/117/41 

v -0.0194293 1.66192 -0.0416915
vt 42.6295 -2.78965
vn -0.382683 0.000647494 -0.923879
vt -14.5944 25.5107
vt -14.5137 25.173
vn -0.55557 0.000582729 -0.831469
vt -14.5691 24.6413
vt 42.2891 -3.47813
f 53/118/44 3/119/44 2/120/45 12/121/42 52/122/42 

v -0.00029515 1.66192 -0.0454975
vt 29.9477 -27.1173
vn 5.47755e-015 0.000700842 -1
vt -7.14162 25.1183
vt -7.63805 24.4907
vt 29.3214 -27.5619
f 54/123/46 4/124/46 3/125/44 53/126/44 

vt -23.0246 -32.033
vt 13.9349 20.0197
vt 13.4385 20.6472
vt -23.6508 -31.5883
f 40/127/25 5/128/25 4/129/46 54/130/46 

v 0.0997049 -0.0193464 -0.0521085
vt 19.134 31.3013
vn 1 2.40764e-031 -8.32667e-017
v 0.0997049 0.0036177 -0.0566596
vt 18.2147 31.2352
vt 17.3907 30.8223
vt 16.7874 30.1255
vt 16.4967 29.2509
vt 16.5628 28.3316
vt 16.9757 27.5075
vt 17.6725 26.9042
vt 18.5471 26.6135
v 0.0997049 0.0035336 0.0633401
vt 19.4664 26.6796
v 0.0997049 -0.0194241 0.0587568
vt 20.2904 27.0925
v 0.0997049 -0.0388804 0.0457368
vt 20.8937 27.7893
v 0.0997049 -0.0518731 0.0262624
vt 21.1845 28.664
v 0.0997049 -0.0564242 0.00329821
vt 21.1183 29.5833
v 0.0997049 -0.0518409 -0.0196595
vt 20.7055 30.4073
v 0.0997049 -0.0388209 -0.0391158
vt 20.0087 31.0106
f 55/131/47 56/132/47 8/133/47 7/134/47 35/135/47 32/136/47 29/137/47 22/138/47 28/139/47 57/140/47 58/141/47 59/142/47 60/143/47 61/144/47 62/145/47 63/146/47 

vt 7.87402 20.4083
vn -6.18656e-015 0.000700842 -1
vt 7.87402 21.33
vn -7.69137e-015 -0.382036 -0.924148
v -0.100295 -0.0193464 -0.0521085
vt -2.36248e-012 21.33
v -0.100295 0.0036177 -0.0566596
vt -2.24456e-012 20.4083
f 56/147/48 55/148/49 64/149/49 65/150/48 

vt -7.87402 -8.28397
vt -7.87402 -9.20566
vn -2.98254e-015 -0.706611 -0.707602
v -0.100295 -0.0388209 -0.0391158
vt -4.55711e-013 -9.20566
vt -4.39809e-013 -8.28397
f 55/151/49 63/152/50 66/153/50 64/154/49 

vt -7.87402 5.17171
vt -7.87402 4.25003
vn 2.7919e-015 -0.923611 -0.383331
v -0.100295 -0.0518409 -0.0196595
vt -8.52651e-014 4.25003
vt -9.19265e-014 5.17171
f 63/155/50 62/156/51 67/157/51 66/158/50 

vt -7.87402 17.9102
vt -7.87402 16.9885
vn 7.51651e-015 -1 -0.000700842
v -0.100295 -0.0564242 0.00329821
vt 4.55746e-014 16.9885
vt 4.30166e-014 17.9102
f 62/159/51 61/160/52 68/161/52 67/162/51 

vt -7.87402 27.9922
vt -7.87402 27.0705
vn 1.05718e-014 -0.924148 0.382036
v -0.100295 -0.0518731 0.0262624
vt 1.10244e-013 27.0705
vt 1.09634e-013 27.9922
f 61/163/52 60/164/53 69/165/53 68/166/52 

vt -7.87402 33.8828
vt -7.87402 32.9611
vn 1.21484e-014 -0.707602 0.706611
v -0.100295 -0.0388804 0.0457368
vt 1.67273e-013 32.9611
vt 1.70787e-013 33.8828
f 60/167/53 59/168/54 70/169/54 69/170/53 

vt -7.87402 34.6852
vt -7.87402 33.7635
vn 1.38822e-014 -0.383331 0.923611
v -0.100295 -0.0194241 0.0587568
vt 2.4337e-013 33.7635
vt 2.53142e-013 34.6852
f 59/171/54 58/172/55 71/173/55 70/174/54 

vt -7.87402 30.2772
vt -7.87402 29.3556
vn 1.51156e-014 -0.000700842 1
v -0.100295 0.0035336 0.0633401
vt 5.59401e-013 29.3556
vt 5.86691e-013 30.2772
f 58/175/55 57/176/56 72/177/56 71/178/55 

vt -7.87402 21.33
vt -7.87402 20.4083
vt 3.7031e-012 20.4083
vt 3.89087e-012 21.33
f 57/179/56 28/180/15 27/181/15 72/182/56 

vt -18.2147 31.2352
vn -1 -2.40764e-031 8.32667e-017
vt -19.134 31.3013
vt -20.0087 31.0106
vt -20.7055 30.4073
vt -21.1183 29.5833
vt -21.1845 28.664
vt -20.8937 27.7893
vt -20.2904 27.0925
vt -19.4664 26.6796
vt -18.5471 26.6135
vt -17.6725 26.9042
vt -16.9757 27.5075
vt -16.5628 28.3316
vt -16.4967 29.2509
vt -16.7874 30.1255
vt -17.3907 30.8223
f 65/183/57 64/184/57 66/185/57 67/186/57 68/187/57 69/188/57 70/189/57 71/190/57 72/191/57 27/192/57 19/193/57 16/194/57 13/195/57 10/196/57 1/197/57 9/198/57 

vt 7.87402 29.3556
vt 7.87402 30.2772
vt -2.07323e-014 30.2772
vt -1.56357e-014 29.3556
f 8/199/4 56/200/48 65/201/48 9/202/4 

